<?xml version="1.0" encoding="UTF-8"?><svg id="Capa_1" xmlns="http://www.w3.org/2000/svg" viewBox="0 0 53 213.96"><defs><style>.cls-1{fill:#fff;}</style></defs><g><rect class="cls-1" x="8" y="26" width="37" height="126"/><path d="M37,34v110H16V34h21m16-16H0V160H53V18h0Z"/></g><g><ellipse class="cls-1" cx="26.5" cy="17.5" rx="20" ry="11"/><path d="M26.5,13c7.52,0,12.24,2.96,13.35,4.5-1.11,1.54-5.83,4.5-13.35,4.5s-12.24-2.96-13.35-4.5c1.11-1.54,5.83-4.5,13.35-4.5m0-13C11.86,0,0,7.83,0,17.5s11.86,17.5,26.5,17.5,26.5-7.83,26.5-17.5S41.14,0,26.5,0h0Z"/></g><g><polygon points="10.89 170.5 42.2 170.5 26.55 200.06 10.89 170.5"/><path d="M31.4,177l-3.12,5.9-1.74,3.28-1.74-3.28-3.12-5.9h9.71m21.59-13H.1l13.22,24.98,13.22,24.98,13.22-24.98,13.22-24.98h0Z"/></g></svg>