<?xml version="1.0" encoding="UTF-8"?><svg id="Capa_1" xmlns="http://www.w3.org/2000/svg" viewBox="0 0 5 27.96"><defs><style>.cls-1{fill:#fff;}</style></defs><g><rect class="cls-1" y="2.35" width="5" height="18.55"/><polygon points="5 2.35 0 2.35 0 20.91 5 20.91 5 2.35 5 2.35"/></g><g><ellipse class="cls-1" cx="2.5" cy="2.29" rx="2.5" ry="2.29"/><path d="M2.5,0C1.12,0,0,1.02,0,2.29s1.12,2.29,2.5,2.29,2.5-1.02,2.5-2.29S3.88,0,2.5,0h0Z"/></g><g><polygon points="0 21.43 2.5 21.43 5 21.43 3.75 24.69 2.5 27.96 1.26 24.69 0 21.43"/><polygon points="5 21.43 2.5 21.43 0 21.43 1.26 24.69 2.5 27.96 3.75 24.69 5 21.43 5 21.43"/></g></svg>