<?xml version="1.0" encoding="UTF-8"?><svg id="Capa_1" xmlns="http://www.w3.org/2000/svg" viewBox="0 0 79 77"><defs><style>.cls-1{fill:#fff;}</style></defs><g><rect class="cls-1" x="33" y="26.68" width="9" height="24.11"/><polygon points="42 26.68 33 26.68 33 50.79 42 50.79 42 26.68 42 26.68"/></g><g><ellipse class="cls-1" cx="37.5" cy="26.6" rx="4.5" ry="2.97"/><path d="M37.5,23.62c-2.49,0-4.5,1.33-4.5,2.97s2.01,2.97,4.5,2.97,4.5-1.33,4.5-2.97-2.01-2.97-4.5-2.97h0Z"/></g><g><polygon points="33.02 51.47 37.51 51.47 42 51.47 39.75 55.71 37.51 59.96 35.26 55.71 33.02 51.47"/><polygon points="42 51.47 37.51 51.47 33.02 51.47 35.26 55.71 37.51 59.96 39.75 55.71 42 51.47 42 51.47"/></g></svg>